:SAMPLES-PER-SECOND 30
:FRAME-RANGE 1-668
:FULLY-SPECIFIED
:DEGREES
585
root  -24.0353 39.1308 30.0841 -175.49 -55.1989 -176.113
RightUpLeg  -9.50788 -7.11075 -5.01931
RightLeg  15.6063 6.35974 2.29171
RightFoot  -12.7336 -0.00176051 6.96748
RightToes  5.38607e-012 1.2921e-014 -6.02303e-014
Spine  -3.10027 -1.55488 3.98008
Spine1  7.20634 -1.23979 -1.65884
HEad  35.0942 14.1992 -1.49473
LeftShoulder1  0.305239 1.93036 -15.6453
LeftArm  -9.33905 -1.59917 -11.2156
LeftForeArm  29.2536 -5.86712 -9.40822
LeftHand  -0.0414339 3.66541 1.53155
RightShoulder  1.12499 1.55128 16.4544
RightArm  -29.1191 8.25725 16.6437
RightForeArm  59.9577 -5.3804 1.78698
RightHand  1.05717 -9.93141 -26.7025
LeftUpLeg  -21.7878 -9.3367 13.7599
LeftLeg  29.332 -2.85818 -1.39924
LeftFoot  -11.8596 0.037486 -7.39629
LeftToes  -6.11857e-011 5.00151e-011 -2.22593e-011
586
root  -24.3814 39.0925 30.3422 -175.634 -53.7846 -175.974
RightUpLeg  -9.39191 -6.90861 -5.57182
RightLeg  15.3443 7.65683 2.38741
RightFoot  -12.6303 -0.00121435 7.51333
RightToes  5.38607e-012 1.2921e-014 -6.02303e-014
Spine  -3.00393 -1.72178 3.14264
Spine1  6.82499 -1.43964 -1.48207
HEad  34.5374 13.7008 -1.22226
LeftShoulder1  0.314335 1.93847 -16.5146
LeftArm  -2.99836 -0.648472 -13.5056
LeftForeArm  25.1655 -3.79239 -11.5347
LeftHand  0.0122401 2.80525 -1.2767
RightShoulder  1.12116 1.50349 16.6169
RightArm  -28.6906 9.40066 18.1868
RightForeArm  61.9564 -4.46051 2.16775
RightHand  0.710699 -9.35565 -21.0432
LeftUpLeg  -21.2593 -10.4893 16.1868
LeftLeg  27.8402 1.61951 1.26506
LeftFoot  -9.28341 0.119223 -3.53796
LeftToes  -6.11857e-011 5.00151e-011 -2.22593e-011
587
root  -24.7866 39.0472 30.65 -175.528 -52.1677 -176.118
RightUpLeg  -9.44243 -6.29046 -6.37707
RightLeg  15.2585 8.74385 2.32955
RightFoot  -12.5561 0.00314996 8.33708
RightToes  5.38607e-012 1.2921e-014 -6.02303e-014
Spine  -3.00231 -1.83866 2.15425
Spine1  6.64535 -1.51311 -1.5831
HEad  33.7945 12.9812 -0.625323
LeftShoulder1  0.392858 1.65297 -17.3584
LeftArm  2.26451 0.300418 -16.2972
LeftForeArm  25.91 -1.62886 -13.3009
LeftHand  0.0694137 2.52094 -3.4587
RightShoulder  1.1515 1.53332 17.148
RightArm  -27.9222 9.97047 19.7514
RightForeArm  62.5851 -2.44698 2.87998
RightHand  0.187342 -7.00779 -14.8221
LeftUpLeg  -20.3159 -11.5816 18.4066
LeftLeg  25.9317 5.40778 3.19088
LeftFoot  -8.1326 0.0905631 -1.48967
LeftToes  -6.11857e-011 5.00151e-011 -2.22593e-011
588
root  -25.2484 38.9496 31.0429 -175.256 -50.3457 -176.393
RightUpLeg  -10.0729 -4.1396 -7.45395
RightLeg  15.9161 8.51071 2.05021
RightFoot  -12.6442 0.0194372 9.25643
RightToes  5.38607e-012 1.2921e-014 -6.02303e-014
Spine  -2.75401 -1.90116 1.2955
Spine1  6.26252 -1.45735 -2.05414
HEad  32.8099 12.0838 -0.0520062
LeftShoulder1  0.443455 1.56237 -19.1594
LeftArm  3.76622 0.695538 -18.3966
LeftForeArm  33.1178 0.492901 -13.8761
LeftHand  0.109887 2.54721 -5.1958
RightShoulder  1.1835 1.63722 17.3146
RightArm  -26.9031 10.0889 22.161
RightForeArm  61.5068 -1.06711 3.5632
RightHand  -0.140207 -3.99896 -10.5173
LeftUpLeg  -19.4573 -12.2389 20.3127
LeftLeg  24.4456 6.0856 3.34747
LeftFoot  -8.46124 0.0729808 -0.881336
LeftToes  -6.11857e-011 5.00151e-011 -2.22593e-011
589
root  -25.7564 38.7628 31.5314 -174.969 -48.7184 -176.645
RightUpLeg  -11.1895 -0.519844 -9.00101
RightLeg  17.3425 6.71463 1.9138
RightFoot  -13.1574 0.078855 10.5982
RightToes  5.38607e-012 1.2921e-014 -6.02303e-014
Spine  -2.14994 -1.95274 0.624492
Spine1  5.6237 -1.32213 -2.92561
HEad  31.4809 10.511 0.671352
LeftShoulder1  0.442593 1.65564 -20.6467
LeftArm  2.97125 1.46746 -21.0332
LeftForeArm  36.0396 1.67938 -13.7061
LeftHand  0.0644525 3.66993 -6.02984
RightShoulder  1.18639 1.57435 17.7128
RightArm  -24.9339 9.51702 24.7497
RightForeArm  58.9576 0.512287 4.70932
RightHand  -0.215227 -2.52562 -8.34614
LeftUpLeg  -19.1075 -13.6244 22.0226
LeftLeg  23.7465 3.6778 2.10445
LeftFoot  -8.32216 0.0515311 -0.0574678
LeftToes  -6.11857e-011 5.00151e-011 -2.22593e-011
590
root  -26.303 38.4998 32.1187 -174.418 -47.1644 -177.047
RightUpLeg  -12.9471 2.71249 -10.9321
RightLeg  19.5023 5.26455 1.85995
RightFoot  -13.8517 0.177718 12.374
RightToes  5.38607e-012 1.2921e-014 -6.02303e-014
Spine  -1.61324 -1.92241 -0.501712
Spine1  5.12571 -1.19649 -3.43453
HEad  29.7761 8.39779 1.21143
LeftShoulder1  0.419671 1.79076 -21.5864
LeftArm  1.74693 2.35371 -24.675
LeftForeArm  37.293 2.46202 -13.3522
LeftHand  0.0328027 4.18968 -5.88523
RightShoulder  1.21568 1.5666 18.4097
RightArm  -22.7928 8.24159 26.8652
RightForeArm  58.8888 3.25559 6.02089
RightHand  -0.191401 -2.60645 -7.56421
LeftUpLeg  -19.1423 -15.5031 23.2624
LeftLeg  23.3814 -0.367451 0.16243
LeftFoot  -7.12626 0.0206967 0.602563
LeftToes  -6.11857e-011 5.00151e-011 -2.22593e-011
591
root  -26.9204 38.1339 32.8219 -173.967 -45.2367 -177.163
RightUpLeg  -15.4305 5.11899 -13.0046
RightLeg  22.3514 5.1575 2.11652
RightFoot  -14.489 0.293433 14.2087
RightToes  5.38607e-012 1.2921e-014 -6.02303e-014
Spine  -1.33741 -1.70925 -1.10597
Spine1  5.02764 -0.847607 -4.06752
HEad  27.5064 5.93103 1.34381
LeftShoulder1  0.477988 1.61529 -22.195
LeftArm  0.185097 3.32568 -28.7415
LeftForeArm  36.4167 2.87523 -12.8495
LeftHand  0.0215471 4.23908 -4.95091
RightShoulder  1.21124 1.42794 19.0947
RightArm  -21.6759 7.04998 29.2293
RightForeArm  61.6774 5.92175 6.73087
RightHand  -0.15143 -3.33227 -7.80209
LeftUpLeg  -19.2782 -16.9867 24.1217
LeftLeg  23.632 -4.22007 -1.68291
LeftFoot  -8.49303 0.187823 -5.50556
LeftToes  -6.11857e-011 5.00151e-011 -2.22593e-011
592
root  -27.637 37.7425 33.6957 -174.132 -42.844 -176.62
RightUpLeg  -18.2462 6.67512 -15.0597
RightLeg  25.3299 6.5589 3.16061
RightFoot  -14.3071 0.334066 16.5716
RightToes  5.38607e-012 1.2921e-014 -6.02303e-014
Spine  -0.503614 -1.52896 -1.09188
Spine1  4.54846 -0.675573 -4.07428
HEad  24.8451 3.49441 0.974599
LeftShoulder1  0.591677 1.23805 -22.5529
LeftArm  -1.12494 4.93342 -33.2214
LeftForeArm  34.1411 2.36688 -12.3425
LeftHand  0.00584452 4.18345 -3.01404
RightShoulder  1.23502 1.37406 19.9611
RightArm  -20.4477 6.85234 31.4556
RightForeArm  65.2281 7.42727 7.25565
RightHand  -0.101 -4.22219 -8.39103
LeftUpLeg  -19.0372 -16.4589 24.1902
LeftLeg  24.1424 -6.45845 -2.82031
LeftFoot  -12.0442 -0.029265 -16.3788
LeftToes  -6.11857e-011 5.00151e-011 -2.22593e-011
593
root  -28.3824 37.4834 34.655 -174.377 -40.1801 -176.242
RightUpLeg  -20.5026 7.89497 -17.2927
RightLeg  26.7996 8.33102 4.33611
RightFoot  -12.738 0.14599 18.9638
RightToes  5.38607e-012 1.2921e-014 -6.02303e-014
Spine  0.488377 -1.56601 -1.83513
Spine1  4.30638 -0.824529 -3.5873
HEad  21.9935 0.599202 0.430096
LeftShoulder1  0.726789 0.823863 -23.2597
LeftArm  -1.4937 6.36585 -37.5686
LeftForeArm  33.6729 0.414878 -12.1901
LeftHand  -0.0233331 4.58333 -0.272264
RightShoulder  1.32748 1.50246 21.2807
RightArm  -18.7282 7.88862 33.2257
RightForeArm  68.595 7.84411 7.77146
RightHand  -0.0466195 -5.02943 -8.65397
LeftUpLeg  -18.6208 -12.8616 22.5268
LeftLeg  25.8652 -8.2628 -4.00141
LeftFoot  -16.006 -0.606208 -17.115
LeftToes  -6.11857e-011 5.00151e-011 -2.22593e-011
594
root  -29.133 37.4541 35.678 -173.903 -37.7325 -176.234
RightUpLeg  -22.0333 8.51993 -19.7636
RightLeg  25.3412 10.0602 4.9493
RightFoot  -9.60551 -0.396311 21.5715
RightToes  5.38607e-012 1.2921e-014 -6.02303e-014
Spine  0.773724 -1.7783 -3.28387
Spine1  4.49545 -1.22389 -2.57336
HEad  19.3159 -2.91274 0.173149
LeftShoulder1  0.882514 0.334143 -23.6981
LeftArm  -2.18205 7.01287 -42.1906
LeftForeArm  36.4772 -2.07265 -11.8446
LeftHand  -0.029121 5.23756 2.19725
RightShoulder  1.41378 1.60008 22.5808
RightArm  -18.2549 9.43622 35.5669
RightForeArm  72.3503 6.69485 7.90254
RightHand  -0.0213247 -5.38463 -8.94581
LeftUpLeg  -19.0176 -9.27226 20.1057
LeftLeg  27.3102 -8.30443 -4.28637
LeftFoot  -18.1093 -0.747471 -14.4052
LeftToes  -6.11857e-011 5.00151e-011 -2.22593e-011
595
root  -29.9279 37.6523 36.7489 -173.38 -35.2945 -175.849
RightUpLeg  -22.7415 9.50769 -21.5885
RightLeg  21.2192 10.1888 4.13508
RightFoot  -4.75753 -1.36999 22.9591
RightToes  5.38607e-012 1.2921e-014 -6.02303e-014
Spine  0.641849 -1.89215 -3.60595
Spine1  4.84482 -1.4546 -1.74816
HEad  17.0776 -6.96456 0.463437
LeftShoulder1  0.997549 -0.0706043 -23.5387
LeftArm  -3.27771 6.69241 -46.7431
LeftForeArm  38.6723 -4.05837 -11.3009
LeftHand  -0.0305698 5.18735 3.27246
RightShoulder  1.46447 1.54743 24.0217
RightArm  -17.3713 10.3557 38.0011
RightForeArm  75.1868 5.60868 8.08006
RightHand  0.00484721 -5.75515 -8.72907
LeftUpLeg  -19.5064 -7.97102 18.075
LeftLeg  27.4386 -6.57093 -3.34427
LeftFoot  -18.4643 -0.647533 -12.1394
LeftToes  -6.11857e-011 5.00151e-011 -2.22593e-011
